{"title":"Brittney.Skye.Vs.Mandingo.Double.x264.Iou1","uid":9258758,"size":352439591,"categoryP":"porn","categoryS":"movie_clips","magnet":"?xt=urn:btih:31b3b62b6717ca1c5d8873ccf0e3a5fe7e4c67eb&amp;dn=Brittney.Skye.Vs.Mandingo.Double.x264.Iou1&amp;tr=udp%3A%2F%2Ftracker.openbittorrent.com%3A80&amp;tr=udp%3A%2F%2Fopen.demonii.com%3A1337&amp;tr=udp%3A%2F%2Ftracker.coppersurfer.tk%3A6969&amp;tr=udp%3A%2F%2Fexodus.desync.com%3A6969","seeders":1,"leechers":2,"uploader":"jaybee211","files":-1,"time":1385599089,"description":"Brittney Skye - OYGB 4.mp4\nFile size                                : 158 MiB\nDuration                                 : 17mn 31s\nOverall bit rate mode                    : Variable\nOverall bit rate                         : 1 261 Kbps\n\nVideo\nDuration                                 : 17mn 31s\nBit rate                                 : 1 200 Kbps\nWidth                                    : 640 pixels\nHeight                                   : 480 pixels\nDisplay aspect ratio                     : 4:3\nFrame rate mode                          : Constant\nFrame rate                               : 29.970 fps\nScan type                                : Progressive\nBits/(Pixel*Frame)                       : 0.130\nStream size                              : 151 MiB (96%)\n\nAudio\nID                                       : 2\nFormat                                   : AAC\nDuration                                 : 17mn 31s\nBit rate mode                            : Variable\nBit rate                                 : 50.0 Kbps\nChannel(s)                               : 2 channels\nChannel positions                        : Front: L R\nSampling rate                            : 48.0 KHz\nStream size                              : 6.27 MiB (4%)\nLanguage                                 : English\n\nBrittney Skye vs Mandingo.mp4\nFile size                                : 178 MiB\nDuration                                 : 17mn 29s\nOverall bit rate mode                    : Variable\nOverall bit rate                         : 1 423 Kbps\n\nVideo\nDuration                                 : 17mn 28s\nBit rate mode                            : Variable\nBit rate                                 : 1 358 Kbps\nMaximum bit rate                         : 2 437 Kbps\nWidth                                    : 720 pixels\nHeight                                   : 540 pixels\nDisplay aspect ratio                     : 4:3\nFrame rate mode                          : Constant\nFrame rate                               : 29.970 fps\nScan type                                : Progressive\nBits/(Pixel*Frame)                       : 0.117\nStream size                              : 170 MiB (95%)\n\nAudio\nDuration                                 : 17mn 29s\nBit rate mode                            : Variable\nBit rate                                 : 60.9 Kbps\nMaximum bit rate                         : 67.9 Kbps\nChannel(s)                               : 2 channels\nChannel positions                        : Front: L R\nSampling rate                            : 48.0 KHz\nStream size                              : 7.62 MiB (4%)\nLanguage                                 : English\n\nScreens. &lt;a href=&quot; http://bayimg.com/JadDAAAFb&quot; rel=&quot;nofollow&quot; target=&quot;_NEW&quot;&gt; http://bayimg.com/JadDAAAFb&lt;/a&gt;\n\n         &lt;a href=&quot; http://bayimg.com/JAdddAaFb&quot; rel=&quot;nofollow&quot; target=&quot;_NEW&quot;&gt; http://bayimg.com/JAdddAaFb&lt;/a&gt;\n\nEnjoy.","torrent":{"xt":"urn:btih:31b3b62b6717ca1c5d8873ccf0e3a5fe7e4c67eb","amp;dn":"Brittney.Skye.Vs.Mandingo.Double.x264.Iou1","amp;tr":["udp%3A%2F%2Ftracker.openbittorrent.com%3A80","udp%3A%2F%2Fopen.demonii.com%3A1337","udp%3A%2F%2Ftracker.coppersurfer.tk%3A6969","udp%3A%2F%2Fexodus.desync.com%3A6969"],"infoHash":"31b3b62b6717ca1c5d8873ccf0e3a5fe7e4c67eb","infoHashBuffer":{"type":"Buffer","data":[49,179,182,43,103,23,202,28,93,136,115,204,240,227,165,254,126,76,103,235]},"announce":[],"urlList":[]}}